<svg xmlns="http://www.w3.org/2000/svg">

    <symbol id="icon-search" viewBox="0 0 64 64">
        <path d="M45,45 L60,60" />
        <circle cx="28" cy="28" r="24" />
    </symbol>

    <symbol id="icon-close" viewBox="0 0 64 64">
        <path d="M4,60 L60,4" />
        <path d="M60,60 L4,4" />
    </symbol>

    <symbol id="icon-play" viewBox="0 0 64 64">
        <path d="M20,4 L20,60 48,32 20,4 Z" />
    </symbol>

    <symbol id="icon-pause" viewBox="0 0 64 64">
        <path d="M19,4 L19,60" />
        <path d="M45,4 L45,60" />
    </symbol>

    <symbol id="icon-backwards" viewBox="0 0 64 64">
        <path d="M32,4 L4,32 32,60 32,32 60,60 60,4 32,32 32,4 Z" />
    </symbol>

    <symbol id="icon-forwards" viewBox="0 0 64 64">
        <path d="M32,4 L60,32 32,60 32,32 4,60 4,4 32,32 32,4 Z" /> 
    </symbol>

    <symbol id="icon-star" viewBox="0 0 64 64">
        <path d="M32,4 L39,25 60,25 43,38 51,60 32,46 13,60 21,38 4,25 25,25 32,4 Z" />
    </symbol>

    <symbol id="icon-checkmark" viewBox="0 0 64 64">
        <path d="M4,39 L24,57 60,7" />
    </symbol>

    <symbol id="icon-caret-left" viewBox="0 0 64 64">
        <path d="M43,60 L19,32 43,4" />
    </symbol>

    <symbol id="icon-caret-right" viewBox="0 0 64 64">
        <path d="M21,60 L45,32 21,4" />
    </symbol>

    <symbol id="icon-arrow-left" viewBox="0 0 64 64">
        <path d="M20,12 L4,32 20,53" />
        <path d="M5,32 L60,32" />
    </symbol>

    <symbol id="icon-arrow-right" viewBox="0 0 64 64">
        <path d="M44,12 L60,32 44,53" />
        <path d="M59,32 L4,32" />
    </symbol>

    <symbol id="icon-start" viewBox="0 0 64 64">
        <path d="M18,4 L18,32 46,4 46,60 18,32 18,60" />
    </symbol>

    <symbol id="icon-end" viewBox="0 0 64 64">
        <path d="M46,4 L46,32 18,4 18,60 46,32 46,60" />
    </symbol>

    <symbol id="icon-eject" viewBox="0 0 64 64">
        <path d="M60,37 L32,10 4,37 60,37 Z"  />
        <path d="M4,51 L60,51" />
    </symbol>

    <symbol id="icon-volume" viewBox="0 0 64 64">
        <path d="M50,32 C50,16 42,4 42,4 L22,22 7,22 7,42 22,42 42,60 C42,60 50,48 50,32 Z" />
    </symbol>

    <symbol id="icon-ban" viewBox="0 0 64 64">
        <circle cx="32" cy="32" r="28" />
        <path d="M51,51 L 13,13" />
    </symbol>

    <symbol id="icon-flag" viewBox="0 0 64 64">
        <path d="M14,12 L54,12 42,25 54,38 14,38" />
        <path d="M14,4 L14,60" />
    </symbol>

    <symbol id="icon-settings" viewBox="0 0 64 64">
        <path d="M57,11 L7,11" />
        <path d="M57,32 L7,32" />
        <path d="M57,53 L7,53" />
        <path d="M48,4 L48,18" />
        <path d="M17,25 L17,39" />
        <path d="M39,46 L39,60" />
    </symbol>

    <symbol id="icon-heart" viewBox="0 0 64 64">
        <path d="M4,26 C1,14 11,7 18,7 25,7 29,11 32,14 35,11 39,7 46,7 53,7 63,14 60,26 57,38 32,57 32,57 32,57 7,38 4,26 Z" />
    </symbol>

    <symbol id="icon-clock" viewBox="0 0 64 64">
        <circle cx="32" cy="32" r="28" />
        <path d="M32,15 L32,32 41,41" />
    </symbol>

    <symbol id="icon-menu" viewBox="0 0 64 64">
        <path d="M58,13 L6,13" />
        <path d="M58,32 L6,32" />
        <path d="M58,51 L6,51" />
    </symbol>

    <symbol id="icon-msg" viewBox="0 0 64 64">
        <path d="M4,10 L60,10 60,46 32,46 15,59 15,46 4,46 4,10 Z" />
    </symbol>

    <symbol id="icon-photo" viewBox="0 0 64 64">
        <path d="M39,47 L25,33 4,54 4,4 60,4 60,45" />
        <path d="M32,40 L44,29 60,45 60,60 4,60 4,54" />
        <circle cx="19" cy="19" r="6" />
    </symbol>

    <symbol id="icon-camera" viewBox="0 0 64 64">
        <path d="M4,17 L18,17 24,9 40,9 46,17 60,17 60,54 4,54 4,17 Z" />
        <circle cx="32" cy="34" r="11" />
    </symbol>

    <symbol id="icon-video" viewBox="0 0 64 64">
        <path d="M44,27 L60,18 60,46 44,37 44,27 Z" />
        <path d="M44,17 L4,17 4,47 44,47 44,17 Z" />
    </symbol>

    <symbol id="icon-mail" viewBox="0 0 64 64">
        <path d="M4,52 L60,52 60,12 39,12 4,12 4,52 Z" />
        <path d="M4,12 L32,32 60,12" />
    </symbol>

    <symbol id="icon-paperclip" viewBox="0 0 64 64">
        <path d="M20,19 L20,48 C20,57 27,60 32,60 37,60 44,57 44,48 L44,13 C44,6 39,4 36,4 33,4 28,6 28,13 L28,44 C28,48 30,49 32,49 34,49 36,48 36,44 L36,19" />
    </symbol>

</svg>

