<svg><symbol id="icon-search" viewBox="0 0 64 64"><path d="M45 45l15 15"/><circle cx="28" cy="28" r="24"/></symbol><symbol id="icon-close" viewBox="0 0 64 64"><path d="M4 60L60 4m0 56L4 4"/></symbol><symbol id="icon-play" viewBox="0 0 64 64"><path d="M20 4v56l28-28z"/></symbol><symbol id="icon-pause" viewBox="0 0 64 64"><path d="M19 4v56M45 4v56"/></symbol><symbol id="icon-backwards" viewBox="0 0 64 64"><path d="M32 4L4 32l28 28V32l28 28V4L32 32z"/></symbol><symbol id="icon-forwards" viewBox="0 0 64 64"><path d="M32 4l28 28-28 28V32L4 60V4l28 28z"/></symbol><symbol id="icon-star" viewBox="0 0 64 64"><path d="M32 4l7 21h21L43 38l8 22-19-14-19 14 8-22L4 25h21z"/></symbol><symbol id="icon-checkmark" viewBox="0 0 64 64"><path d="M4 39l20 18L60 7"/></symbol><symbol id="icon-chevron-top" viewBox="0 0 64 64"><path d="M60 43L32 19 4 43"/></symbol><symbol id="icon-chevron-right" viewBox="0 0 64 64"><path d="M21 60l24-28L21 4"/></symbol><symbol id="icon-chevron-bottom" viewBox="0 0 64 64"><path d="M60 21L32 45 4 21"/></symbol><symbol id="icon-chevron-left" viewBox="0 0 64 64"><path d="M43 60L19 32 43 4"/></symbol><symbol id="icon-arrow-top" viewBox="0 0 64 64"><path d="M12 20L32 4l21 16M32 5v55"/></symbol><symbol id="icon-arrow-right" viewBox="0 0 64 64"><path d="M44 12l16 20-16 21m15-21H4"/></symbol><symbol id="icon-arrow-bottom" viewBox="0 0 64 64"><path d="M12 44l20 16 21-16M32 59V4"/></symbol><symbol id="icon-arrow-left" viewBox="0 0 64 64"><path d="M20 12L4 32l16 21M5 32h55"/></symbol><symbol id="icon-caret-top" viewBox="0 0 64 64"><path d="M58 44L32 12 6 44h52z"/></symbol><symbol id="icon-caret-right" viewBox="0 0 64 64"><path d="M20 58l32-26L20 6v52z"/></symbol><symbol id="icon-caret-bottom" viewBox="0 0 64 64"><path d="M58 20L32 52 6 20h52z"/></symbol><symbol id="icon-caret-left" viewBox="0 0 64 64"><path d="M44 58L12 32 44 6v52z"/></symbol><symbol id="icon-start" viewBox="0 0 64 64"><path d="M18 4v28L46 4v56L18 32v28"/></symbol><symbol id="icon-end" viewBox="0 0 64 64"><path d="M46 4v28L18 4v56l28-28v28"/></symbol><symbol id="icon-eject" viewBox="0 0 64 64"><path d="M60 37L32 10 4 37h56zM4 51h56"/></symbol><symbol id="icon-volume" viewBox="0 0 64 64"><path d="M50 32c0-16-8-28-8-28L22 22H7v20h15l20 18s8-12 8-28z"/></symbol><symbol id="icon-ban" viewBox="0 0 64 64"><circle cx="32" cy="32" r="28"/><path d="M51 51L13 13"/></symbol><symbol id="icon-flag" viewBox="0 0 64 64"><path d="M14 12h40L42 25l12 13H14m0-34v56"/></symbol><symbol id="icon-options" viewBox="0 0 64 64"><path d="M57 11H7m50 21H7m50 21H7M48 4v14m-31 7v14m22 7v14"/></symbol><symbol id="icon-settings" viewBox="0 0 64 64"><path d="M27 4v8l-6 2-5-5-7 7 5 5-2 6H4v10h8l2 6-5 5 7 7 6-4 4 1 1 8h10l1-8 4-1 6 4 7-7-5-5 2-5 8-1V27l-8-1-2-5 5-5-7-7-5 5-6-2V4H27z"/><circle cx="32" cy="32" r="7"/></symbol><symbol id="icon-heart" viewBox="0 0 64 64"><path d="M4 26C1 14 11 7 18 7s11 4 14 7c3-3 7-7 14-7s17 7 14 19-28 31-28 31S7 38 4 26z"/></symbol><symbol id="icon-clock" viewBox="0 0 64 64"><circle cx="32" cy="32" r="28"/><path d="M32 15v17l9 9"/></symbol><symbol id="icon-menu" viewBox="0 0 64 64"><path d="M58 13H6m52 19H6m52 19H6"/></symbol><symbol id="icon-msg" viewBox="0 0 64 64"><path d="M4 10h56v36H32L15 59V46H4z"/></symbol><symbol id="icon-photo" viewBox="0 0 64 64"><path d="M39 47L25 33 4 54V4h56v41m-28-5l12-11 16 16v15H4v-6"/><circle cx="19" cy="19" r="6"/></symbol><symbol id="icon-camera" viewBox="0 0 64 64"><path d="M4 17h14l6-8h16l6 8h14v37H4z"/><circle cx="32" cy="34" r="11"/></symbol><symbol id="icon-video" viewBox="0 0 64 64"><path d="M44 27l16-9v28l-16-9zm0-10H4v30h40z"/></symbol><symbol id="icon-mail" viewBox="0 0 64 64"><path d="M4 52h56V12H4zm0-40l28 20 28-20"/></symbol><symbol id="icon-home" viewBox="0 0 64 64"><path d="M25 41v19H8V26L32 6l24 20v34H39V41H25z"/></symbol><symbol id="icon-user" viewBox="0 0 64 64"><path d="M44 22c-1 10-5 18-12 18s-11-8-12-18S24 6 32 6s13 6 12 16zM6 60h52c0-20-15-20-26-20S6 40 6 60z"/></symbol><symbol id="icon-trash" viewBox="0 0 64 64"><path d="M32 23v25m9-25v25M23 23v25M8 11h48m-24 0V4M14 60h36V11H14v49z"/></symbol><symbol id="icon-paperclip" viewBox="0 0 64 64"><path d="M20 19v29c0 9 7 12 12 12s12-3 12-12V13c0-7-5-9-8-9s-8 2-8 9v31c0 4 2 5 4 5s4-1 4-5V19"/></symbol><symbol id="icon-file" viewBox="0 0 64 64"><path d="M39 4H11v56h42V18L39 4zm0 0v14h14"/></symbol><symbol id="icon-work" viewBox="0 0 64 64"><path d="M60 17H4v37h56V17zm-20 0s0-9-8-9-8 9-8 9m-7 37V17m30 37V17"/></symbol><symbol id="icon-work2" viewBox="0 0 64 64"><path d="M58 34v20H6V34"/><path d="M4 17h56v16s-14 6-28 6-28-6-28-6V17zm28 26v-8m8-18s0-9-8-9-8 9-8 9m34 17v20H6V34"/></symbol><symbol id="icon-eye" viewBox="0 0 64 64"><circle cx="34" cy="30" r="3"/><circle cx="32" cy="32" r="12"/><path d="M4 32s11-19 28-19 28 19 28 19-11 19-28 19S4 32 4 32z"/></symbol><symbol id="icon-bookmark" viewBox="0 0 64 64"><path d="M12 4h40v56L32 40 12 60V4z"/></symbol><symbol id="icon-export" viewBox="0 0 64 64"><path d="M42 24h11v36H11V24h11M32 5v35M20 13l12-9 12 9"/></symbol><symbol id="icon-import" viewBox="0 0 64 64"><path d="M42 24h11v36H11V24h11M32 8v35m-12-8l12 9 12-9"/></symbol><symbol id="icon-twitter" viewBox="0 0 64 64"><path stroke-width="0" fill="currentColor" d="M60 16l-6 1 4-5-7 2c-9-10-23 1-19 10C16 24 8 12 8 12s-6 9 4 16l-6-2c0 6 4 10 11 12h-7c4 8 11 8 11 8s-6 5-17 5c33 16 53-14 50-30z"/></symbol></svg>