<svg><symbol id="icon-search" viewBox="0 0 32 32"><circle cx="14" cy="14" r="12"/><path d="M23 23l7 7"/></symbol><symbol id="icon-close" viewBox="0 0 32 32"><path d="M2 30L30 2m0 28L2 2"/></symbol><symbol id="icon-play" viewBox="0 0 32 32"><path d="M10 2v28l14-14z"/></symbol><symbol id="icon-pause" viewBox="0 0 32 32"><path d="M23 2v28M9 2v28"/></symbol><symbol id="icon-backwards" viewBox="0 0 32 32"><path d="M16 2L2 16l14 14V16l14 14V2L16 16z"/></symbol><symbol id="icon-forwards" viewBox="0 0 32 32"><path d="M16 2l14 14-14 14V16L2 30V2l14 14z"/></symbol><symbol id="icon-star" viewBox="0 0 32 32"><path d="M16 2l4 10h10l-8 7 3 11-9-7-9 7 3-11-8-7h10z"/></symbol><symbol id="icon-checkmark" viewBox="0 0 32 32"><path d="M2 20l10 8L30 4"/></symbol><symbol id="icon-chevron-top" viewBox="0 0 32 32"><path d="M30 20L16 8 2 20"/></symbol><symbol id="icon-chevron-right" viewBox="0 0 32 32"><path d="M12 30l12-14L12 2"/></symbol><symbol id="icon-chevron-bottom" viewBox="0 0 32 32"><path d="M30 12L16 24 2 12"/></symbol><symbol id="icon-chevron-left" viewBox="0 0 32 32"><path d="M20 30L8 16 20 2"/></symbol><symbol id="icon-arrow-top" viewBox="0 0 32 32"><path d="M6 10l10-8 10 8M16 3v27"/></symbol><symbol id="icon-arrow-right" viewBox="0 0 32 32"><path d="M22 6l8 10-8 10m7-10H2"/></symbol><symbol id="icon-arrow-bottom" viewBox="0 0 32 32"><path d="M6 22l10 8 10-8m-10 7V2"/></symbol><symbol id="icon-arrow-left" viewBox="0 0 32 32"><path d="M10 6L2 16l8 10M3 16h27"/></symbol><symbol id="icon-caret-top" viewBox="0 0 32 32"><path d="M30 22L16 6 2 22z"/></symbol><symbol id="icon-caret-right" viewBox="0 0 32 32"><path d="M10 30l16-14L10 2z"/></symbol><symbol id="icon-caret-bottom" viewBox="0 0 32 32"><path d="M30 10L16 26 2 10z"/></symbol><symbol id="icon-caret-left" viewBox="0 0 32 32"><path d="M22 30L6 16 22 2z"/></symbol><symbol id="icon-start" viewBox="0 0 32 32"><path d="M8 2v14L22 2v28L8 16v14"/></symbol><symbol id="icon-end" viewBox="0 0 32 32"><path d="M24 2v14L10 2v28l14-14v14"/></symbol><symbol id="icon-eject" viewBox="0 0 32 32"><path d="M30 18L16 5 2 18zM2 25h28"/></symbol><symbol id="icon-mute" viewBox="0 0 32 32"><path d="M20 16c0-8-5-14-5-14l-7 8H2v12h6l7 8s5-6 5-14z"/></symbol><symbol id="icon-volume" viewBox="0 0 32 32"><path d="M20 16c0-8-5-14-5-14l-7 8H2v12h6l7 8s5-6 5-14zm1-14s4 4 4 14-4 14-4 14m6-26s3 4 3 12-3 12-3 12"/></symbol><symbol id="icon-ban" viewBox="0 0 32 32"><circle cx="16" cy="16" r="14"/><path d="M6 6l20 20"/></symbol><symbol id="icon-flag" viewBox="0 0 32 32"><path d="M6 2v28M6 6h20l-6 6 6 6H6"/></symbol><symbol id="icon-options" viewBox="0 0 32 32"><path d="M28 6H4m24 10H4m24 10H4M24 3v6M8 13v6m12 4v6"/></symbol><symbol id="icon-settings" viewBox="0 0 32 32"><path d="M13 2v4l-2 1-3-3-4 4 3 3-1 2H2v6h4l1 2-3 3 4 4 3-3 2 1v4h6v-4l2-1 3 3 4-4-3-3 1-2h4v-6h-4l-1-2 3-3-4-4-3 3-2-1V2z"/><circle cx="16" cy="16" r="4"/></symbol><symbol id="icon-heart" viewBox="0 0 32 32"><path d="M4 16C1 12 2 6 7 4s8 2 9 4c1-2 5-6 10-4s5 8 2 12-12 12-12 12-9-8-12-12z"/></symbol><symbol id="icon-clock" viewBox="0 0 32 32"><circle cx="16" cy="16" r="14"/><path d="M16 8v8l4 4"/></symbol><symbol id="icon-menu" viewBox="0 0 32 32"><path d="M4 8h24M4 16h24M4 24h24"/></symbol><symbol id="icon-msg" viewBox="0 0 32 32"><path d="M2 4h28v18H16l-8 7v-7H2z"/></symbol><symbol id="icon-photo" viewBox="0 0 32 32"><path d="M20 24l-8-8L2 28V2h28v22m-14-4l6-6 8 8v8H2v-4"/><circle cx="10" cy="9" r="3"/></symbol><symbol id="icon-camera" viewBox="0 0 32 32"><path d="M2 8h7l3-4h8l3 4h7v18H2z"/><circle cx="16" cy="16" r="5"/></symbol><symbol id="icon-video" viewBox="0 0 32 32"><path d="M22 13l8-5v16l-8-5zM2 8v16h20V8z"/></symbol><symbol id="icon-mail" viewBox="0 0 32 32"><path d="M2 26h28V6H2zM2 6l14 10L30 6"/></symbol><symbol id="icon-home" viewBox="0 0 32 32"><path d="M12 20v10H4V12L16 2l12 10v18h-8V20z"/></symbol><symbol id="icon-user" viewBox="0 0 32 32"><path d="M22 11c0 5-3 9-6 9s-6-4-6-9 2-8 6-8 6 3 6 8zM4 30h24c0-9-6-10-12-10S4 21 4 30z"/></symbol><symbol id="icon-trash" viewBox="0 0 32 32"><path d="M28 6H6l2 24h16l2-24H4m12 6v12m5-12l-1 12m-9-12l1 12m0-18l1-4h6l1 4"/></symbol><symbol id="icon-paperclip" viewBox="0 0 32 32"><path d="M10 9v15c0 4 3 6 6 6s6-2 6-6V6c0-3-2-4-4-4s-4 1-4 4v17c0 1 1 2 2 2s2-1 2-2V9"/></symbol><symbol id="icon-file" viewBox="0 0 32 32"><path d="M6 2v28h20V10l-8-8zm12 0v8h8"/></symbol><symbol id="icon-folder" viewBox="0 0 32 32"><path d="M2 28h28V8H14l-4-4H2zm28-16H2"/></symbol><symbol id="icon-folder2" viewBox="0 0 32 32"><path d="M4 28h24l2-16H14l-4-4H2zm24-16V4H4v4"/></symbol><symbol id="icon-work" viewBox="0 0 32 32"><path d="M30 8H2v18h28zM20 8s0-4-4-4-4 4-4 4M8 26V8m16 18V8"/></symbol><symbol id="icon-work2" viewBox="0 0 32 32"><path d="M29 17v11H3V17M2 8h28v8s-6 4-14 4-14-4-14-4V8zm14 14v-4m4-10s0-4-4-4-4 4-4 4"/></symbol><symbol id="icon-eye" viewBox="0 0 32 32"><circle cx="17" cy="15" r="1"/><circle cx="16" cy="16" r="6"/><path d="M2 16S7 6 16 6s14 10 14 10-5 10-14 10S2 16 2 16z"/></symbol><symbol id="icon-bookmark" viewBox="0 0 32 32"><path d="M6 2h20v28L16 20 6 30z"/></symbol><symbol id="icon-tag" viewBox="0 0 32 32"><circle cx="24" cy="8" r="2"/><path d="M2 18L18 2h12v12L14 30z"/></symbol><symbol id="icon-lightning" viewBox="0 0 32 32"><path d="M18 13l8-11L8 13l6 6-8 11 18-11z"/></symbol><symbol id="icon-location" viewBox="0 0 32 32"><circle cx="16" cy="11" r="4"/><path d="M24 15c-3 7-8 15-8 15s-5-8-8-15 2-13 8-13 11 6 8 13z"/></symbol><symbol id="icon-export" viewBox="0 0 32 32"><path d="M28 22v8H4v-8M16 5v19M8 12l8-8 8 8"/></symbol><symbol id="icon-import" viewBox="0 0 32 32"><path d="M28 22v8H4v-8M16 4v19m-8-7l8 8 8-8"/></symbol><symbol id="icon-twitter" viewBox="0 0 64 64"><path stroke-width="0" fill="currentColor" d="M60 16l-6 1 4-5-7 2c-9-10-23 1-19 10C16 24 8 12 8 12s-6 9 4 16l-6-2c0 6 4 10 11 12h-7c4 8 11 8 11 8s-6 5-17 5c33 16 53-14 50-30z"/></symbol></svg>